HIERARCHY
ROOT SimulationBone
{
	OFFSET 0.000000 0.000000 0.000000
	CHANNELS 6 Xposition Yposition Zposition Zrotation Yrotation Xrotation 
	JOINT Hips
	{
		OFFSET 0.000000 0.000000 0.000000
		CHANNELS 6 Xposition Yposition Zposition Zrotation Yrotation Xrotation 
		JOINT RightUpLeg
		{
			OFFSET 0.103458 1.857820 10.548502
			CHANNELS 3 Zrotation Yrotation Xrotation
			JOINT RightLeg
			{
				OFFSET 43.500000 -0.000023 -0.000011
				CHANNELS 3 Zrotation Yrotation Xrotation
				JOINT RightFoot
				{
					OFFSET 42.372192 0.000038 0.000002
					CHANNELS 3 Zrotation Yrotation Xrotation
					JOINT RightToe
					{
						OFFSET 17.299992 -0.000004 0.000006
						CHANNELS 3 Zrotation Yrotation Xrotation
						End Site
						{
							OFFSET 0.000000 0.000000 0.000000
						}
					}
				}
			}
		}
		JOINT LeftUpLeg
		{
			OFFSET 0.103461 1.857814 -10.548508
			CHANNELS 3 Zrotation Yrotation Xrotation
			JOINT LeftLeg
			{
				OFFSET 43.500042 -0.000015 0.000008
				CHANNELS 3 Zrotation Yrotation Xrotation
				JOINT LeftFoot
				{
					OFFSET 42.372253 0.000008 0.000006
					CHANNELS 3 Zrotation Yrotation Xrotation
					JOINT LeftToe
					{
						OFFSET 17.299973 -0.000014 0.000011
						CHANNELS 3 Zrotation Yrotation Xrotation
						End Site
						{
							OFFSET 0.000000 0.000000 0.000000
						}
					}
				}
			}
		}
		JOINT Spine
		{
			OFFSET 6.901966 -2.603737 -0.000007
			CHANNELS 3 Zrotation Yrotation Xrotation
			JOINT Spine1
			{
				OFFSET 12.588102 0.000017 0.000001
				CHANNELS 3 Zrotation Yrotation Xrotation
				JOINT Spine2
				{
					OFFSET 12.343197 -0.000013 0.000000
					CHANNELS 3 Zrotation Yrotation Xrotation
					JOINT Neck
					{
						OFFSET 25.832905 -0.000008 0.000000
						CHANNELS 3 Zrotation Yrotation Xrotation
						JOINT Head
						{
							OFFSET 11.766610 0.000009 -0.000002
							CHANNELS 3 Zrotation Yrotation Xrotation
							End Site
							{
								OFFSET 0.000000 0.000000 0.000000
							}
						}
					}
					JOINT RightShoulder
					{
						OFFSET 19.745903 -1.480377 6.000115
						CHANNELS 3 Zrotation Yrotation Xrotation
						JOINT RightArm
						{
							OFFSET 11.284125 -0.000014 -0.000024
							CHANNELS 3 Zrotation Yrotation Xrotation
							JOINT RightForeArm
							{
								OFFSET 33.000046 -0.000012 0.000029
								CHANNELS 3 Zrotation Yrotation Xrotation
								JOINT RightHand
								{
									OFFSET 25.199989 0.000034 0.000012
									CHANNELS 3 Zrotation Yrotation Xrotation
									End Site
									{
										OFFSET 0.000000 0.000000 0.000000
									}
								}
							}
						}
					}
					JOINT LeftShoulder
					{
						OFFSET 19.746098 -1.480362 -6.000071
						CHANNELS 3 Zrotation Yrotation Xrotation
						JOINT LeftArm
						{
							OFFSET 11.284137 -0.000006 -0.000008
							CHANNELS 3 Zrotation Yrotation Xrotation
							JOINT LeftForeArm
							{
								OFFSET 33.000095 0.000017 0.000000
								CHANNELS 3 Zrotation Yrotation Xrotation
								JOINT LeftHand
								{
									OFFSET 25.199778 0.000144 0.000423
									CHANNELS 3 Zrotation Yrotation Xrotation
									End Site
									{
										OFFSET 0.000000 0.000000 0.000000
									}
								}
							}
						}
					}
				}
			}
		}
	}
}
MOTION
Frames: 6
Frame Time: 0.016667
-22.918085 0.000000 218.060175 180.000000 -11.056993 180.000000 1.947094 89.183517 -1.927078 100.191740 -3.650313 -179.523357 175.941370 0.412001 -176.927048 -26.158319 -6.987905 -4.485273 80.154550 3.331368 0.042841 21.454558 0.003109 0.000017 164.843378 4.726502 -173.134039 -78.281241 -0.097864 6.375301 64.433729 -3.444617 3.035544 21.454560 -0.003092 0.000000 9.590857 -0.142015 -1.062413 9.170745 -0.199365 -2.132698 8.852880 -0.212376 -2.131464 19.612407 5.270242 -0.149818 -2.934267 -1.711950 0.238839 -167.202989 -73.949409 -14.535915 -19.537052 54.389351 20.139471 -36.009883 -17.547670 1.550464 9.934095 -6.128314 19.526174 -162.259530 72.520814 19.661504 -0.660613 -59.506655 -20.565232 -45.088052 18.573742 -1.834779 15.963180 1.639525 -49.008980 
-25.039791 0.000000 218.666101 180.000000 -11.332221 180.000000 1.915462 89.395576 -1.943832 100.044687 -3.679990 -179.224681 177.947940 0.411546 -177.186542 -24.692834 -7.045620 -3.999890 80.736266 3.074526 0.410199 21.454558 0.003108 0.000017 162.405992 4.508151 -173.020981 -76.400575 0.537715 6.627395 64.856511 -3.707344 2.925379 21.454560 -0.003091 -0.000000 9.558596 -0.108695 -1.300003 9.105659 -0.114750 -2.604477 8.787926 -0.130607 -2.603745 19.523354 5.828637 -0.030260 -3.289649 -1.984169 0.437864 -168.668092 -74.846951 -13.033105 -21.267051 54.138904 18.557795 -39.393756 -18.316459 1.685267 8.829532 -6.112766 20.882225 -160.626735 72.327264 21.341705 1.446232 -57.845262 -23.708604 -44.747050 17.804433 -1.774725 16.527944 -0.720540 -42.532961 
-27.180126 0.000000 219.251013 180.000000 -11.589947 180.000000 1.875546 89.492348 -1.983420 99.861398 -3.748887 -178.960222 179.833553 0.363909 -177.742668 -23.454047 -7.133115 -3.344965 81.436222 2.711780 0.836834 21.454558 0.003107 0.000017 160.173264 4.328599 -173.082485 -73.882265 1.213996 6.741256 65.537959 -3.887222 2.775018 21.454553 -0.003091 0.000000 9.526990 -0.086878 -1.523827 9.041874 -0.054426 -3.049723 8.724283 -0.072969 -3.049347 19.339773 6.370816 0.070056 -3.755206 -2.084296 0.585723 -169.936021 -75.714862 -11.736324 -22.845471 53.710707 17.104570 -43.054633 -19.014593 1.832576 7.570044 -6.010093 22.021713 -159.501227 72.155624 22.500976 3.416106 -56.020844 -27.018574 -44.544338 17.124970 -1.723129 16.466406 -3.315326 -36.840472 
-29.335815 0.000000 219.814595 180.000000 -11.821398 180.000000 1.807913 89.477669 -2.030865 99.623096 -3.851169 -178.711522 -178.468429 0.359598 -178.256978 -22.490242 -7.181922 -2.729784 82.256025 2.357643 1.193622 21.454558 0.003105 0.000017 158.162795 4.132930 -173.306168 -70.674261 1.940517 6.831759 66.152239 -4.086986 2.517741 21.454545 -0.003092 0.000000 9.496306 -0.072220 -1.745430 8.979926 -0.008790 -3.491134 8.662490 -0.029995 -3.491025 18.965253 6.863944 0.176460 -4.094342 -2.030709 0.714362 -170.784101 -76.452730 -10.871295 -24.244468 53.028067 15.579939 -47.060551 -19.536168 1.986411 6.450992 -5.733559 23.112337 -158.731366 72.135510 23.292604 5.168870 -54.289850 -30.362873 -44.321699 16.568151 -1.679528 15.651304 -5.667089 -32.010780 
-31.503831 0.000000 220.361044 180.000000 -12.020091 180.000000 1.728527 89.374207 -2.092047 99.414569 -3.999261 -178.512825 -176.796919 0.432907 -178.619692 -21.646343 -7.201058 -2.248830 83.118361 2.074457 1.461878 21.454560 0.003105 0.000017 156.492078 3.929306 -173.708144 -66.707178 2.662178 6.943019 66.540740 -4.310229 2.224590 21.454543 -0.003092 0.000000 9.485944 -0.067825 -1.950747 8.958801 0.015554 -3.900818 8.641528 -0.008120 -3.900847 18.439122 7.259775 0.238248 -4.305510 -1.879844 0.782273 -171.370019 -77.066105 -10.275074 -25.538131 52.130687 13.815742 -51.317201 -19.772254 2.143108 5.438084 -5.473911 24.201865 -158.092555 72.207725 23.947879 6.656838 -52.687893 -33.625714 -44.121225 16.133655 -1.645567 14.319217 -7.443909 -27.969904 
-33.682034 0.000000 220.896471 180.000000 -12.179404 180.000000 1.658316 89.204907 -2.173040 99.323830 -4.202857 -178.401454 -174.982575 0.603835 -178.749764 -20.764137 -7.222244 -1.976906 83.956858 1.915598 1.645831 21.454560 0.003106 0.000017 155.282938 3.722833 -174.260221 -61.931640 3.281072 7.116846 66.656856 -4.553307 1.985706 21.454549 -0.003092 -0.000001 9.514117 -0.078338 -2.122164 9.015237 0.008869 -4.243906 8.698118 -0.016872 -4.243888 17.843418 7.541334 0.209173 -4.458751 -1.701183 0.753594 -171.968500 -77.581275 -9.666634 -26.800249 51.066631 11.701893 -55.675444 -19.634276 2.287106 4.442399 -5.405793 25.319985 -157.414255 72.278405 24.643548 7.868003 -51.220425 -36.683038 -44.011388 15.803432 -1.620875 12.798498 -8.443010 -24.746275 
